<svg width="53" height="54" viewBox="0 0 53 54" fill="none" xmlns="http://www.w3.org/2000/svg">
<g id="7">
<path id="Shape" d="M22.8919 26.3114C22.9945 25.9618 23.097 25.6414 23.1849 25.321C23.6096 23.6752 24.0197 22.0295 24.5762 20.4128C25.5868 17.4854 26.7584 14.6162 27.9593 11.7616C29.2921 8.60113 30.5956 5.44067 31.9137 2.28021C32.1187 1.77046 32.3677 1.28983 32.6167 0.794645C32.7045 0.605309 32.8364 0.430537 32.9828 0.284893C33.2318 0.0372991 33.554 0.13925 33.5833 0.488794C33.6126 0.780081 33.6126 1.07137 33.554 1.36265C33.3343 2.60062 33.1146 3.83859 32.851 5.062C32.148 8.39723 31.4304 11.7325 30.8738 15.0968C30.5516 17.0776 30.2734 19.0583 29.9951 21.0391C29.7461 22.7868 29.5411 24.52 29.3214 26.2677C29.2921 26.5298 29.2775 26.792 29.2482 27.127C29.3946 27.0396 29.4679 26.9959 29.5411 26.9376C29.834 26.6755 30.1416 26.4133 30.4052 26.122C33.2464 23.18 36.4538 20.6604 39.837 18.3592C40.042 18.2282 40.2471 18.0971 40.4667 17.9806C40.5839 17.9223 40.7157 17.8932 40.8329 17.8786C41.0672 17.8641 41.243 18.0243 41.243 18.2573C41.243 18.4321 41.2137 18.636 41.1258 18.7962C40.9208 19.2185 40.7157 19.6409 40.4521 20.0196C39.5734 21.243 38.6946 22.4664 37.7866 23.6607C36.4245 25.4521 35.0332 27.2289 33.6565 29.0203C33.3929 29.3553 33.1586 29.7194 32.9389 30.0981C32.6167 30.637 32.6753 30.8991 33.2171 31.2341C33.6272 31.4817 34.0519 31.7002 34.4913 31.8895C36.073 32.5595 37.7134 33.0838 39.3537 33.579C43.5277 34.8606 47.6578 36.2734 51.7 37.9192C51.9489 38.0211 52.2126 38.1085 52.4615 38.2104C52.5641 38.2541 52.6519 38.2978 52.7398 38.3707C52.9302 38.5454 52.8716 38.8513 52.6227 38.9387C52.5348 38.9678 52.4323 38.9824 52.3444 38.9824C51.3631 38.9969 50.3819 39.0261 49.4006 38.9969C46.9108 38.895 44.4211 38.6328 41.946 38.327C38.3138 37.89 34.711 37.2929 31.1375 36.5501C30.6541 36.4482 30.1708 36.3753 29.6875 36.288C29.585 36.2734 29.4825 36.2588 29.3653 36.2734C28.9845 36.2734 28.8234 36.3608 28.7209 36.7394C28.5891 37.2492 28.4719 37.759 28.3841 38.2687C27.9886 40.4679 27.6664 42.6817 27.4175 44.91C27.2564 46.3519 27.1392 47.8084 26.9634 49.2502C26.8316 50.3862 26.6412 51.5077 26.4801 52.6437C26.4362 52.8913 26.3483 53.1389 26.2605 53.3719C26.1726 53.6195 26.0115 53.838 25.7039 53.838C25.4256 53.8234 25.2645 53.6195 25.1913 53.3719C25.0595 52.9787 24.9277 52.5709 24.8691 52.1631C24.7227 51.1873 24.5762 50.1969 24.5176 49.2211C24.3712 46.8325 24.254 44.4586 24.1808 42.07C24.1368 40.6281 24.1808 39.1863 24.1954 37.7444C24.1954 37.6133 24.1954 37.4677 24.1954 37.2783C23.9757 37.3075 23.7853 37.3075 23.5949 37.3366C21.486 37.6861 19.4209 38.1668 17.3412 38.6619C13.797 39.4775 10.2527 40.366 6.66455 41.0796C5.1414 41.3855 3.6036 41.6476 2.06581 41.9244C1.80218 41.9681 1.52392 41.9826 1.26029 42.0117C1.18707 42.0117 1.11384 42.0263 1.05526 42.0117C0.747696 41.9972 0.586594 41.9098 0.557303 41.7205C0.513366 41.4729 0.674468 41.3563 0.850216 41.2544C1.24565 41.0359 1.62644 40.832 2.02187 40.6281C5.75651 38.6619 9.57903 36.8705 13.3723 35.0354C15.1444 34.1761 16.8872 33.2294 18.6301 32.3119C18.8497 32.1954 19.0401 32.0643 19.3038 31.9041C19.1719 31.7293 19.0694 31.5545 18.9376 31.4235C18.2053 30.637 17.5023 29.8214 16.7115 29.0932C15.1297 27.6367 13.5187 26.224 11.893 24.8113C9.91588 23.0927 7.96801 21.3449 6.18124 19.437C5.78581 19.0146 5.40502 18.5631 5.03888 18.1117C4.93636 17.9951 4.84848 17.8495 4.76061 17.7039C4.64344 17.5 4.65809 17.3106 4.7899 17.1795C4.90707 17.0485 5.09746 17.0339 5.3025 17.1358C5.37573 17.165 5.44896 17.2232 5.52218 17.2524C6.50344 17.8058 7.45541 18.3884 8.45132 18.9127C11.4097 20.4565 14.3828 22.0003 17.2827 23.6752C18.674 24.4763 20.1239 25.1462 21.6471 25.6851C21.8814 25.7725 22.0864 25.889 22.3061 26.0055C22.4965 26.0929 22.6723 26.1949 22.8919 26.3114Z" fill="#EA552B"/>
</g>
</svg>
